<?xml version="1.0" encoding="UTF-8"?>
<svg id="Capa_2" data-name="Capa 2" xmlns="http://www.w3.org/2000/svg" viewBox="0 0 137.14 141.27">
  <defs>
    <style>
      .cls-1 {
        fill: #1d1d1b;
      }
    </style>
  </defs>
  <g id="Mariposa">
    <path class="cls-1" d="M134.05,75.25c-9.01-9.69-21.34-13.05-34.55-12.32,4.38-6.45,4.53-16.99,2.2-24.42-1.25-3.97-13.2-29.58-23.99-37.67-2.99-2.24-7.2.09-13.2,6.09-5.31,5.31-9.17,17.29-11.19,27.85-.44,2.31-.91,4.88-2.79,6.28-1.86,1.38-4.56,1.08-6.55-.11-1.99-1.19-3.43-3.09-4.81-4.95-.28-.37-.57-.78-.59-1.24-.06-1.14,1.34-1.67,2.41-2.05,4.71-1.7,7.58-7.3,6.32-12.15-1.27-4.85-6.4-8.32-11.39-7.79-4.98.53-9.25,4.9-9.77,9.88-.25,2.4.08,5.3-1.83,6.77-1.08.83-2.54.89-3.88,1.14-4.86.9-9.03,5.05-9.65,9.96-.62,4.9,2.57,10.1,7.32,11.5,2.6.77,6.04,0,6.85-2.59.24-.78.22-1.65.63-2.35,1.08-1.85,3.89-1.14,5.8-.17,2.05,1.04,4.16,2.15,5.58,3.96,1.42,1.81,1.98,4.51.69,6.41-1.52,2.24-4.67,2.44-7.37,2.6-6.12.35-12.19,1.64-17.93,3.8-5.73,2.16-11.79,6.16-12.3,12.26-.51,6.22,4.94,11.12,9.87,14.94,3.79,2.93,7.59,5.86,11.38,8.79,5.43,4.19,11.1,8.5,17.8,9.93,6.7,1.43,13.17-1.16,18.41-6.65,1.63,14.31,8.85,27.29,20.62,35.59,2.12,1.49,4.53,2.88,7.11,2.75,4.79-.23,7.76-5.31,9.08-9.93,2.09-7.32,2.34-15.17.7-22.61,2.94,1.72,6.01,3.48,9.41,3.68s7.18-1.69,7.92-5.01c.76-3.37-1.73-6.53-4.04-9.1,9.86-.79,19.39-5.23,26.33-12.28,1.03-1.05,2.04-2.21,2.38-3.64.63-2.61-1.13-5.17-2.96-7.13ZM54.44,82.42c-1.83,2.27-3.73,4.56-6.24,6.04-1.36.8-2.93,1.21-4.51,1.1-9.2-.64-26.37-12.02-26.37-12.02,10.84-3.28,22.39-4.18,33.62-2.65,1.09.15,2.2.33,3.18.83s1.84,1.37,2.05,2.45c.3,1.55-.74,3.01-1.74,4.25ZM83.75,130.2c-.12.26-.25.53-.45.74-.46.46-1.22.51-1.83.28s-1.1-.69-1.56-1.16c-4.65-4.69-7.66-10.93-8.65-17.46-1.76-11.68,4.96-16.78,4.96-16.78,1.89,1.87,3.8,3.76,5.18,6.03,1.04,1.71,1.75,3.59,2.36,5.49,2.39,7.42,3.21,15.76-.01,22.86ZM87.11,48.15c-.3,2.99-1.62,6-4.06,7.76-1.03.74-2.21,1.23-3.42,1.62-2.02.65-4.41.94-6.1-.33-.81-.61-1.35-1.51-1.82-2.39-1.59-2.95-2.53-6.21-2.86-9.55-.5-5.04-1.31-10.29-.32-15.34.96-4.89,3.67-9.42,7.51-12.6.61-.5,1.53-.29,1.84.43,1.69,3.9,6.47,15.13,8.15,21.49.77,2.91,1.38,5.91,1.08,8.91ZM117.77,85.24c-3.84.56-7.72.84-11.6.84-3.46,0-7.03-.25-10.11-1.81-1.9-.96-5.02-5.14-5.02-5.14,4.68-4.55,11.8-5.83,18.26-4.88,6.46.94,12.45,3.82,18.33,6.66-2.32,2.86-6.22,3.81-9.87,4.34Z"/>
  </g>
</svg>